<svg width="136" height="92" viewBox="0 0 136 92" fill="none" xmlns="http://www.w3.org/2000/svg">
<g clip-path="url(#clip0_275_6377)">
<path d="M119.335 5.15099L82.728 17.5134C81.7199 17.8568 80.6173 17.8256 79.6092 17.4197L36.3236 0.187302C35.221 -0.249753 33.9293 0.0936475 33.2048 1.03019L31.5666 3.15303C30.8105 4.15201 30.842 5.52561 31.6611 6.49338L47.9483 25.4116C49.177 26.8476 48.5784 29.0329 46.7827 29.6573L24.0058 37.3369C23.2497 37.5867 22.4621 37.493 21.769 37.1184L5.4503 27.5344C4.28467 26.8476 2.77251 27.1286 1.95343 28.19L0.535774 30.0007C-0.25181 31.0309 -0.188803 32.4357 0.661787 33.4035L8.85266 42.4255L36.7961 46.7336L135.937 13.2677C133.606 6.46216 126.14 2.84085 119.272 5.15099H119.335Z" fill="white"/>
<path d="M136 43.8928C133.164 43.8928 130.865 41.6138 130.865 38.8042C130.865 35.9946 133.164 33.7156 136 33.7156V18.8246L38.1816 51.8534V52.0719C38.1816 52.0719 38.4022 52.0095 38.5282 52.0095C40.0403 52.0095 41.2375 53.227 41.2375 54.6943C41.2375 56.1615 40.0088 57.379 38.5282 57.379C38.4022 57.379 38.3077 57.3166 38.1816 57.3166V60.7818C38.1816 60.7818 38.4022 60.7194 38.5282 60.7194C40.0403 60.7194 41.2375 61.9369 41.2375 63.4041C41.2375 64.8714 40.0088 66.0889 38.5282 66.0889C38.4022 66.0889 38.3077 66.0265 38.1816 66.0265V69.4917C38.1816 69.4917 38.4022 69.4292 38.5282 69.4292C40.0403 69.4292 41.2375 70.6468 41.2375 72.114C41.2375 73.5813 40.0088 74.7988 38.5282 74.7988C38.4022 74.7988 38.3077 74.7363 38.1816 74.7363V78.2016C38.1816 78.2016 38.4022 78.1391 38.5282 78.1391C40.0403 78.1391 41.2375 79.3566 41.2375 80.8239C41.2375 82.2911 40.0088 83.5087 38.5282 83.5087C38.4022 83.5087 38.3077 83.4462 38.1816 83.4462V86.9114C38.1816 86.9114 38.4022 86.849 38.5282 86.849C40.0403 86.849 41.2375 88.0665 41.2375 89.5338C41.2375 90.0332 41.0484 90.5015 40.7964 90.9074L135.968 58.7526V43.8616L136 43.8928Z" fill="#FDF300"/>
<path d="M35.0316 56.4113V52.1032L8.88379 48.076V62.9671C11.7191 62.9671 14.0188 65.246 14.0188 68.0556C14.0188 70.8653 11.7191 73.1442 8.88379 73.1442V87.9416L35.0316 91.9688V87.848C33.6454 87.7231 32.5428 86.5993 32.5428 85.1944C32.5428 83.7896 33.6454 82.6658 35.0316 82.5409V79.1069C33.6454 78.982 32.5428 77.8582 32.5428 76.4533C32.5428 75.0485 33.6454 73.9247 35.0316 73.7998V70.3658C33.6454 70.2409 32.5428 69.1171 32.5428 67.7122C32.5428 66.3074 33.6454 65.1836 35.0316 65.0587V61.6247C33.6454 61.4998 32.5428 60.376 32.5428 58.9712C32.5428 57.5663 33.6454 56.4425 35.0316 56.3176V56.4113Z" fill="#FDF300"/>
</g>
<defs>
<clipPath id="clip0_275_6377">
<rect width="136" height="92" fill="white"/>
</clipPath>
</defs>
</svg>
