<svg width="33" height="32" viewBox="0 0 33 32" fill="none" xmlns="http://www.w3.org/2000/svg">
<path d="M16.0306 2.66675C8.65651 2.66675 2.67175 8.64008 2.67175 16.0001C2.67175 23.3601 8.65651 29.3334 16.0306 29.3334C23.4047 29.3334 29.3894 23.3601 29.3894 16.0001C29.3894 8.64008 23.4047 2.66675 16.0306 2.66675ZM16.0306 8.00008C18.6088 8.00008 20.7062 10.0934 20.7062 12.6667C20.7062 15.2401 18.6088 17.3334 16.0306 17.3334C13.4523 17.3334 11.355 15.2401 11.355 12.6667C11.355 10.0934 13.4523 8.00008 16.0306 8.00008ZM16.0306 26.6667C13.3187 26.6667 10.1126 25.5734 7.82826 22.8267C10.0859 21.0667 12.9313 20.0001 16.0306 20.0001C19.1298 20.0001 21.9753 21.0667 24.2329 22.8267C21.9485 25.5734 18.7424 26.6667 16.0306 26.6667Z" fill="#1D72FF"/>
</svg>
