<svg width="60" height="12" viewBox="0 0 60 12" fill="none" xmlns="http://www.w3.org/2000/svg">
<g clip-path="url(#clip0_2_669)">
<path d="M1.34254 0.932861H2.85943L1.52561 8.49116H0L1.34254 0.932861Z" fill="white"/>
<path d="M10.8187 0.919678L9.4849 8.48669H7.95929L5.4573 3.29963L4.53757 8.48669H3.01196L4.3545 0.919678H5.87139L8.3821 6.11546L9.30183 0.919678H10.8187Z" fill="white"/>
<path d="M13.8352 8.56519C12.266 8.56519 11.076 7.77623 11.2591 6.31165H12.8065C12.7542 6.90881 13.1421 7.34906 13.8875 7.34906C14.6329 7.34906 15.0775 7.04394 15.0775 6.45113C15.0775 5.0868 11.7211 5.44423 11.6775 3.1689C11.6558 1.70867 12.8588 0.819458 14.4803 0.819458C16.1018 0.819458 17.1131 1.66508 17.0128 2.97275H15.4C15.4654 2.45404 15.108 2.03994 14.4018 2.03994C13.6957 2.03994 13.2642 2.37558 13.2642 2.92916C13.2642 4.2499 16.6728 4.05375 16.6728 6.31601C16.6728 7.61495 15.5569 8.55647 13.8265 8.55647L13.8352 8.56519Z" fill="white"/>
<path d="M18.5121 0.932861H24.0566L23.8387 2.12284H21.8336L20.709 8.49116H19.1834L20.308 2.12284H18.2942L18.5121 0.932861Z" fill="white"/>
<path d="M28.712 7.04826H25.6913L24.946 8.48669H23.355L27.4131 0.919678H29.1784L30.5559 8.48669H28.9518L28.712 7.04826ZM27.9754 2.66323L26.3059 5.86701H28.5159L27.9754 2.66323Z" fill="white"/>
<path d="M39.378 0.919678L38.0442 8.48669H36.5186L34.0166 3.29963L33.0969 8.48669H31.5713L32.9138 0.919678H34.4307L36.9414 6.11546L37.8612 0.919678H39.378Z" fill="white"/>
<path d="M40.4721 0.932861H46.0166L45.7986 2.12284H43.7936L42.669 8.49116H41.1434L42.268 2.12284H40.2542L40.4721 0.932861Z" fill="white"/>
<path d="M45.7771 8.49113L46.8363 2.49331H48.3619L48.1788 3.55251C48.6757 2.85945 49.3819 2.40613 50.2144 2.40613L49.9311 3.99712H49.5301C48.6844 3.99712 48.1134 4.30224 47.8606 5.28735L47.2983 8.49113H45.7727H45.7771Z" fill="white"/>
<path d="M51.2125 2.48889H52.7381L51.6789 8.48671H50.1533L51.2125 2.48889ZM51.3302 0.884817C51.4174 0.387905 51.8838 -0.00439453 52.4243 -0.00439453C52.9648 -0.00439453 53.2786 0.383546 53.1915 0.884817C53.1043 1.38173 52.6379 1.77403 52.1105 1.77403C51.583 1.77403 51.243 1.38609 51.3302 0.884817Z" fill="white"/>
<path d="M57.7378 2.39303C59.2765 2.39303 60.2616 3.59608 59.9346 5.46604C59.599 7.34036 58.1824 8.58264 56.6524 8.58264C55.7109 8.58264 55.1137 8.11624 54.8348 7.62805L54.1853 11.3418H52.6597L54.2201 2.48457H55.7458L55.5932 3.35198C56.0378 2.842 56.805 2.38867 57.7378 2.38867V2.39303ZM57.1101 3.72685C56.2993 3.72685 55.4101 4.35453 55.214 5.4922C55.0091 6.62986 55.6586 7.25754 56.4824 7.25754C57.3062 7.25754 58.1824 6.60807 58.3872 5.4704C58.5834 4.33273 57.9339 3.72685 57.1101 3.72685Z" fill="white"/>
</g>
<defs>
<clipPath id="clip0_2_669">
<rect width="60" height="11.3462" fill="white"/>
</clipPath>
</defs>
</svg>
