<svg width="33" height="32" viewBox="0 0 33 32" fill="none" xmlns="http://www.w3.org/2000/svg">
<path d="M16.0307 2.66663C8.65663 2.66663 2.67188 8.63996 2.67188 16C2.67188 23.36 8.65663 29.3333 16.0307 29.3333C23.4048 29.3333 29.3895 23.36 29.3895 16C29.3895 8.63996 23.4048 2.66663 16.0307 2.66663ZM16.0307 7.99996C18.609 7.99996 20.7063 10.0933 20.7063 12.6666C20.7063 15.24 18.609 17.3333 16.0307 17.3333C13.4524 17.3333 11.3551 15.24 11.3551 12.6666C11.3551 10.0933 13.4524 7.99996 16.0307 7.99996ZM16.0307 26.6666C13.3189 26.6666 10.1127 25.5733 7.82838 22.8266C10.086 21.0666 12.9315 20 16.0307 20C19.13 20 21.9754 21.0666 24.233 22.8266C21.9487 25.5733 18.7425 26.6666 16.0307 26.6666Z" fill="#D9D9D9"/>
</svg>
