<svg width="29" height="8" viewBox="0 0 29 8" fill="none" xmlns="http://www.w3.org/2000/svg">
<path d="M0.146447 3.32845C-0.0488155 3.52372 -0.0488155 3.8403 0.146447 4.03556L3.32843 7.21754C3.52369 7.4128 3.84027 7.4128 4.03553 7.21754C4.2308 7.02228 4.2308 6.7057 4.03553 6.51043L1.20711 3.68201L4.03553 0.85358C4.2308 0.658318 4.2308 0.341735 4.03553 0.146473C3.84027 -0.0487893 3.52369 -0.0487893 3.32843 0.146473L0.146447 3.32845ZM28.8536 4.03556C29.0488 3.8403 29.0488 3.52372 28.8536 3.32845L25.6716 0.146473C25.4763 -0.0487893 25.1597 -0.0487893 24.9645 0.146473C24.7692 0.341735 24.7692 0.658318 24.9645 0.85358L27.7929 3.68201L24.9645 6.51043C24.7692 6.7057 24.7692 7.02228 24.9645 7.21754C25.1597 7.4128 25.4763 7.4128 25.6716 7.21754L28.8536 4.03556ZM0.5 4.18201H28.5V3.18201H0.5V4.18201Z" fill="black"/>
</svg>
