<svg width="60" height="12" viewBox="0 0 60 12" fill="none" xmlns="http://www.w3.org/2000/svg">
<g clip-path="url(#clip0_2_778)">
<path d="M1.34254 0.9328H2.85943L1.52561 8.4911H0L1.34254 0.9328Z" fill="black"/>
<path d="M10.8187 0.919724L9.4849 8.48674H7.95929L5.4573 3.29967L4.53757 8.48674H3.01196L4.3545 0.919724H5.87139L8.3821 6.11551L9.30183 0.919724H10.8187Z" fill="black"/>
<path d="M13.8351 8.56521C12.2659 8.56521 11.0759 7.77625 11.259 6.31166H12.8064C12.7541 6.90883 13.142 7.34908 13.8874 7.34908C14.6327 7.34908 15.0774 7.04396 15.0774 6.45115C15.0774 5.08682 11.721 5.44425 11.6774 3.16891C11.6556 1.70869 12.8587 0.819473 14.4802 0.819473C16.1017 0.819473 17.1129 1.6651 17.0127 2.97276H15.3999C15.4653 2.45405 15.1079 2.03996 14.4017 2.03996C13.6956 2.03996 13.2641 2.37559 13.2641 2.92917C13.2641 4.24991 16.6727 4.05376 16.6727 6.31602C16.6727 7.61497 15.5568 8.55649 13.8264 8.55649L13.8351 8.56521Z" fill="black"/>
<path d="M18.5121 0.9328H24.0566L23.8387 2.12277H21.8336L20.709 8.4911H19.1834L20.308 2.12277H18.2942L18.5121 0.9328Z" fill="black"/>
<path d="M28.7119 7.04831H25.6912L24.9458 8.48674H23.3549L27.413 0.919724H29.1783L30.5557 8.48674H28.9517L28.7119 7.04831ZM27.9753 2.66328L26.3058 5.86705H28.5158L27.9753 2.66328Z" fill="black"/>
<path d="M39.3782 0.919724L38.0444 8.48674H36.5187L34.0167 3.29967L33.097 8.48674H31.5714L32.9139 0.919724H34.4308L36.9416 6.11551L37.8613 0.919724H39.3782Z" fill="black"/>
<path d="M40.4722 0.9328H46.0167L45.7988 2.12277H43.7937L42.6691 8.4911H41.1435L42.2681 2.12277H40.2543L40.4722 0.9328Z" fill="black"/>
<path d="M45.7769 8.4911L46.8361 2.49327H48.3618L48.1787 3.55248C48.6756 2.85942 49.3817 2.4061 50.2143 2.4061L49.931 3.99709H49.5299C48.6843 3.99709 48.1133 4.30221 47.8605 5.28732L47.2982 8.4911H45.7726H45.7769Z" fill="black"/>
<path d="M51.2125 2.4889H52.7381L51.6789 8.48672H50.1533L51.2125 2.4889ZM51.3302 0.884833C51.4174 0.38792 51.8838 -0.00437927 52.4243 -0.00437927C52.9648 -0.00437927 53.2786 0.383561 53.1915 0.884833C53.1043 1.38175 52.6379 1.77404 52.1105 1.77404C51.583 1.77404 51.243 1.3861 51.3302 0.884833Z" fill="black"/>
<path d="M57.7378 2.39303C59.2765 2.39303 60.2616 3.59608 59.9346 5.46604C59.599 7.34036 58.1824 8.58264 56.6524 8.58264C55.7109 8.58264 55.1137 8.11624 54.8348 7.62805L54.1853 11.3418H52.6597L54.2201 2.48457H55.7458L55.5932 3.35198C56.0378 2.842 56.805 2.38867 57.7378 2.38867V2.39303ZM57.1101 3.72685C56.2993 3.72685 55.4101 4.35453 55.214 5.4922C55.0091 6.62986 55.6586 7.25754 56.4824 7.25754C57.3062 7.25754 58.1824 6.60807 58.3872 5.4704C58.5834 4.33273 57.9339 3.72685 57.1101 3.72685Z" fill="black"/>
</g>
<defs>
<clipPath id="clip0_2_778">
<rect width="60" height="11.3462" fill="white"/>
</clipPath>
</defs>
</svg>
